<svg width="605" height="605" xmlns="http://www.w3.org/2000/svg" xmlns:xlink="http://www.w3.org/1999/xlink" xml:space="preserve" overflow="hidden"><defs><clipPath id="clip0"><rect x="0" y="0" width="605" height="605"/></clipPath><clipPath id="clip1"><rect x="0" y="0" width="605" height="605"/></clipPath></defs><g clip-path="url(#clip0)"><g clip-path="url(#clip1)"><path d="M4.88883e-14 605-6.22484e-14-1.52588e-05 605-1.52588e-05 605 605Z" fill="#000000" fill-rule="nonzero" fill-opacity="1"/><path d="M100.833 504.167 100.833 403.333 201.667 403.333 201.667 504.167Z" fill="#FFFFFF" fill-rule="nonzero" fill-opacity="1"/><path d="M100.833 302.5 100.833 151.25 201.667 151.25 201.667 302.5Z" fill="#FFFFFF" fill-rule="nonzero" fill-opacity="1"/><path d="M100.833 201.667 100.833 100.833 201.667 100.833 201.667 201.667Z" fill="#FFFFFF" fill-rule="nonzero" fill-opacity="1"/><path d="M100.833 201.667 100.833 100.833 252.083 100.833 252.083 201.667Z" fill="#FFFFFF" fill-rule="nonzero" fill-opacity="1"/><path d="M201.667 403.333 201.667 302.5 302.5 302.5 302.5 403.333Z" fill="#FFFFFF" fill-rule="nonzero" fill-opacity="1"/><path d="M201.667 201.667 201.667 100.833 302.5 100.833 302.5 201.667Z" fill="#FFFFFF" fill-rule="nonzero" fill-opacity="1"/><path d="M201.667 201.667 201.667 100.833 352.917 100.833 352.917 201.667Z" fill="#FFFFFF" fill-rule="nonzero" fill-opacity="1"/><path d="M302.5 302.5 302.5 151.25 403.333 151.25 403.333 302.5Z" fill="#FFFFFF" fill-rule="nonzero" fill-opacity="1"/><path d="M302.5 302.5 302.5 201.667 453.75 201.667 453.75 302.5Z" fill="#FFFFFF" fill-rule="nonzero" fill-opacity="1"/><path d="M302.5 201.667 302.5 100.833 403.333 100.833 403.333 201.667Z" fill="#FFFFFF" fill-rule="nonzero" fill-opacity="1"/><path d="M403.333 302.5 403.333 201.667 504.167 201.667 504.167 302.5Z" fill="#FFFFFF" fill-rule="nonzero" fill-opacity="1"/></g></g></svg>